<?xml version='1.0' encoding='utf-8'?>
<svg xmlns:xlink="http://www.w3.org/1999/xlink" xmlns="http://www.w3.org/2000/svg" width="86.699mm" height="42.333mm" clip-rule="evenodd" fill-rule="evenodd" image-rendering="optimizeQuality" shape-rendering="geometricPrecision" text-rendering="geometricPrecision" version="1.0" viewBox="0 0 8670 4233"> <defs> <style type="text/css">.fil40 {fill:none} .fil0 {fill:#1A1A1A} .fil30 {fill:url(#a)} .fil39 {fill:url(#ab)} .fil1 {fill:url(#id3)} .fil11 {fill:url(#g)} .fil21 {fill:url(#f)} .fil22 {fill:url(#e)} .fil31 {fill:url(#d)} .fil2 {fill:url(#c)} .fil12 {fill:url(#b)} .fil29 {fill:url(#al)} .fil38 {fill:url(#ak)} .fil10 {fill:url(#aj)} .fil20 {fill:url(#ai)} .fil23 {fill:url(#ah)} .fil32 {fill:url(#ag)} .fil3 {fill:url(#af)} .fil13 {fill:url(#ae)} .fil28 {fill:url(#ad)} .fil37 {fill:url(#ac)} .fil9 {fill:url(#aa)} .fil19 {fill:url(#z)} .fil24 {fill:url(#y)} .fil27 {fill:url(#x)} .fil33 {fill:url(#w)} .fil36 {fill:url(#v)} .fil4 {fill:url(#u)} .fil7 {fill:url(#t)} .fil8 {fill:url(#s)} .fil14 {fill:url(#r)} .fil15 {fill:url(#q)} .fil18 {fill:url(#p)} .fil25 {fill:url(#o)} .fil26 {fill:url(#n)} .fil34 {fill:url(#m)} .fil35 {fill:url(#l)} .fil5 {fill:url(#k)} .fil6 {fill:url(#j)} .fil16 {fill:url(#i)} .fil17 {fill:url(#h)}</style> <clipPath id="am"> <path d="m94-817h6365v3421h-6365v-3421z"/> </clipPath> <linearGradient id="a" x1="8643.7" x2="8643.7" y1="-1975.2" y2="128.86" gradientUnits="userSpaceOnUse"> <stop stop-color="red" offset="0"/> <stop stop-color="#960505" offset=".41961"/> <stop stop-color="red" offset="1"/> </linearGradient> <linearGradient id="ab" x1="2387.2" x2="4491.3" y1="-6128" y2="-6128" gradientUnits="userSpaceOnUse" xlink:href="#a"/> <linearGradient id="g" x1="-1765.6" x2="-1765.6" y1="128.42" y2="-1975.6" gradientUnits="userSpaceOnUse" xlink:href="#a"/> <linearGradient id="f" x1="90%" x2="9.9998%" y1="50%" y2="50%" xlink:href="#a"/> <linearGradient id="e" x1="5364.3" x2="3320.9" y1="4022.1" y2="4382.4" gradientUnits="userSpaceOnUse" xlink:href="#a"/> <linearGradient id="d" x1="8384.5" x2="8744.8" y1="-2848.6" y2="-805.24" gradientUnits="userSpaceOnUse" xlink:href="#a"/> <linearGradient id="c" x1="1513.8" x2="3557.2" y1="-5868.9" y2="-6229.2" gradientUnits="userSpaceOnUse" xlink:href="#a"/> <linearGradient id="b" x1="-1506.5" x2="-1866.8" y1="1001.9" y2="-1041.5" gradientUnits="userSpaceOnUse" xlink:href="#a"/> <linearGradient id="al" x1="8750.8" x2="8378.4" y1="-1075.3" y2="1036.5" gradientUnits="userSpaceOnUse" xlink:href="#a"/> <linearGradient id="ak" x1="3287.1" x2="5398.9" y1="-6235.1" y2="-5862.8" gradientUnits="userSpaceOnUse" xlink:href="#a"/> <linearGradient id="aj" x1="-1872.7" x2="-1500.3" y1="-771.48" y2="-2883.3" gradientUnits="userSpaceOnUse" xlink:href="#a"/> <linearGradient id="ai" x1="3590.9" x2="1479.1" y1="4388.4" y2="4016" gradientUnits="userSpaceOnUse" xlink:href="#a"/> <linearGradient id="ah" x1="6230.3" x2="4207.5" y1="3599.4" y2="4335.6" gradientUnits="userSpaceOnUse" xlink:href="#a"/> <linearGradient id="ag" x1="7961.8" x2="8698" y1="-3714.7" y2="-1691.8" gradientUnits="userSpaceOnUse" xlink:href="#a"/> <linearGradient id="af" x1="647.71" x2="2670.6" y1="-5446.1" y2="-6182.4" gradientUnits="userSpaceOnUse" xlink:href="#a"/> <linearGradient id="ae" x1="-1083.7" x2="-1820" y1="1868" y2="-154.92" gradientUnits="userSpaceOnUse" xlink:href="#a"/> <linearGradient id="ad" x1="8696.1" x2="7963.4" y1="-149.66" y2="1863.5" gradientUnits="userSpaceOnUse" xlink:href="#a"/> <linearGradient id="ac" x1="4212.7" x2="6225.9" y1="-6180.5" y2="-5447.7" gradientUnits="userSpaceOnUse" xlink:href="#a"/> <linearGradient id="aa" x1="-1818" x2="-1085.3" y1="-1697.1" y2="-3710.3" gradientUnits="userSpaceOnUse" xlink:href="#a"/> <linearGradient id="z" x1="2665.3" x2="652.12" y1="4333.7" y2="3601" gradientUnits="userSpaceOnUse" xlink:href="#a"/> <linearGradient id="y" x1="6939.7" x2="5142.6" y1="3065.3" y2="4102.9" gradientUnits="userSpaceOnUse" xlink:href="#a"/> <linearGradient id="x" x1="56.119%" x2="43.881%" y1="35.016%" y2="64.984%" xlink:href="#a"/> <linearGradient id="w" x1="44.427%" x2="55.573%" y1="33.714%" y2="66.286%" xlink:href="#a"/> <linearGradient id="v" x1="5079.3" x2="7003.8" y1="-5986.2" y2="-4875.1" gradientUnits="userSpaceOnUse" xlink:href="#a"/> <linearGradient id="u" x1="-61.66" x2="1735.4" y1="-4912.1" y2="-5949.6" gradientUnits="userSpaceOnUse" xlink:href="#a"/> <linearGradient id="t" x1="-1623.8" x2="-512.71" y1="-2563.7" y2="-4488.1" gradientUnits="userSpaceOnUse" xlink:href="#a"/> <linearGradient id="s" x1="-1623.8" x2="-512.7" y1="-2563.7" y2="-4488.1" gradientUnits="userSpaceOnUse" xlink:href="#a"/> <linearGradient id="r" x1="-549.68" x2="-1587.2" y1="2577.3" y2="780.21" gradientUnits="userSpaceOnUse" xlink:href="#a"/> <linearGradient id="q" x1="-549.69" x2="-1587.2" y1="2577.3" y2="780.21" gradientUnits="userSpaceOnUse" xlink:href="#a"/> <linearGradient id="p" x1="1798.7" x2="-125.7" y1="4139.4" y2="3028.4" gradientUnits="userSpaceOnUse" xlink:href="#a"/> <linearGradient id="o" x1="7608.4" x2="5960.4" y1="2372.4" y2="3755.2" gradientUnits="userSpaceOnUse" xlink:href="#a"/> <linearGradient id="n" x1="8131.8" x2="6719.9" y1="1581" y2="3263.6" gradientUnits="userSpaceOnUse" xlink:href="#a"/> <linearGradient id="m" x1="6734.8" x2="8117.6" y1="-5092.7" y2="-3444.7" gradientUnits="userSpaceOnUse" xlink:href="#a"/> <linearGradient id="l" x1="5943.4" x2="7626" y1="-5616.2" y2="-4204.3" gradientUnits="userSpaceOnUse" xlink:href="#a"/> <linearGradient id="k" x1="-730.3" x2="917.7" y1="-4219.1" y2="-5601.9" gradientUnits="userSpaceOnUse" xlink:href="#a"/> <linearGradient id="j" x1="-1253.8" x2="158.12" y1="-3427.7" y2="-5110.4" gradientUnits="userSpaceOnUse" xlink:href="#a"/> <linearGradient id="i" x1="143.28" x2="-1239.5" y1="3245.9" y2="1597.9" gradientUnits="userSpaceOnUse" xlink:href="#a"/> <linearGradient id="h" x1="934.68" x2="-747.96" y1="3769.4" y2="2357.5" gradientUnits="userSpaceOnUse" xlink:href="#a"/> </defs> <g clip-path="url(#am)"> <rect class="fil0" x="-4371" y="-6394" width="16091" height="10273"/> <path class="fil1" d="m3995-11170c434 156 936 937 698 1817-260 959-1036 1996-1062 3394 244 1425 473 2697 425 3588-50 898-333 1448-617 1448s-564-576-668-1522c-103-925-1-2208 122-3616-31-1429-180-2786 9-3735 194-977 659-1531 1093-1374z"/> <path class="fil2" d="m2207-11111c454 79 1085 760 1003 1668-89 990-673 2145-456 3527 488 1361 934 2574 1041 3460 107 893-77 1483-356 1533-279 49-655-470-922-1383-262-893-384-2174-508-3583-278-1401-661-2711-640-3679 21-995 383-1622 838-1543z"/> <path class="fil3" d="m456-10742c462-2 1201 560 1278 1469 84 989-290 2229 163 3552 717 1255 1368 2373 1626 3226 261 861 183 1475-84 1572-266 97-727-349-1149-1202-412-834-755-2074-1121-3440-518-1331-1122-2556-1270-3512-151-984 96-1664 557-1665z"/> <path class="fil4" d="m-1203-10075c454-82 1280 343 1513 1225 254 960 101 2246 777 3469 924 1112 1759 2100 2162 2895 407 803 436 1421 190 1563-246 141-776-217-1340-984-551-750-1104-1912-1702-3193-741-1221-1548-2322-1860-3239-320-942-195-1655 260-1736z"/> <path class="fil5" d="m-2722-9130c433-159 1320 116 1703 943 417 902 489 2195 1368 3282 1103 935 2097 1763 2632 2476 539 720 675 1323 458 1506-217 182-802-79-1490-737-673-642-1420-1690-2231-2848-942-1075-1928-2019-2394-2867-479-873-479-1596-46-1755z"/> <path class="fil6" d="m-4054-7936c399-231 1321-115 1842 634 567 815 863 2076 1917 2994 1248 729 2370 1372 3021 1982 657 615 895 1185 713 1403-182 217-803 61-1595-467-775-516-1692-1418-2692-2418-1114-894-2249-1652-2855-2407-624-776-749-1489-351-1721z"/> <path class="fil7" d="m-5157-6528c352-297 1280-342 1923 304 700 704 1210 1895 2408 2616 1356 501 2573 939 3319 1427 754 492 1088 1012 946 1258-142 245-780 200-1652-182-853-374-1912-1104-3071-1914-1252-688-2502-1238-3230-1876-749-656-996-1335-643-1633z"/> <path class="fil8" d="m-5157-6528c352-297 1280-342 1923 304 700 704 1210 1895 2408 2616 1356 501 2573 939 3319 1427 754 492 1088 1012 946 1258-142 245-780 200-1652-182-853-374-1912-1104-3071-1914-1252-688-2502-1238-3230-1876-749-656-996-1335-643-1633z"/> <path class="fil9" d="m-6e3 -4950c296-354 1201-560 1947-35 812 572 1521 1656 2825 2159 1423 258 2697 477 3517 828 828 354 1247 808 1150 1075-97 266-734 332-1659 107-904-220-2075-754-3356-1352-1353-459-2679-783-3507-1285-851-516-1213-1143-917-1497z"/> <path class="fil10" d="m-6556-3250c230-400 1086-760 1911-372 899 422 1786 1366 3158 1635 1446 7 2739 2 3607 205 877 205 1368 579 1319 859-49 279-665 455-1615 394-929-60-2174-383-3540-749-1412-217-2774-307-3676-657-928-360-1393-915-1164-1315z"/> <path class="fil11" d="m-6808-1479c157-434 938-937 1818-698 958 260 1995 1035 3393 1062 1425-245 2698-474 3588-425 899 49 1448 333 1448 617 0 283-576 563-1522 668-925 102-2208 1-3616-122-1428 31-2785 179-3735-9-976-194-1531-659-1374-1093z"/> <path class="fil12" d="m-6749 309c79-455 761-1085 1669-1003 989 89 2145 673 3526 456 1361-488 2575-935 3460-1041 894-108 1484 76 1533 356 49 279-469 655-1383 922-893 262-2174 384-3582 508-1401 278-2712 660-3680 640-995-22-1622-384-1543-838z"/> <path class="fil13" d="m-6380 2059c-1-461 561-1201 1469-1277 990-84 2229 290 3552-163 1256-717 2373-1368 3227-1626 861-261 1474-183 1571 84 97 266-348 726-1201 1148-835 413-2075 756-3440 1122-1332 518-2556 1122-3513 1269-984 152-1664-95-1665-557z"/> <path class="fil14" d="m-5713 3719c-81-454 344-1280 1225-1513 960-255 2246-101 3470-778 1112-924 2099-1758 2895-2161 803-407 1420-436 1562-190 142 245-217 776-984 1339-750 552-1911 1105-3193 1703-1221 740-2322 1548-3238 1859-943 321-1656 195-1737-259z"/> <path class="fil15" d="m-5713 3719c-81-454 344-1280 1225-1513 960-255 2246-101 3470-778 1112-924 2099-1758 2895-2161 803-407 1420-436 1562-190 142 245-217 776-984 1339-750 552-1911 1105-3193 1703-1221 740-2322 1548-3238 1859-943 321-1656 195-1737-259z"/> <path class="fil16" d="m-4768 5238c-159-433 116-1320 944-1703 901-418 2194-490 3282-1368 934-1104 1762-2097 2476-2632 720-540 1323-676 1505-458 182 217-79 802-736 1490-643 673-1691 1419-2849 2231-1074 941-2018 1928-2867 2394-872 479-1596 479-1755 46z"/> <path class="fil17" d="m-3573 6569c-232-399-115-1320 633-1841 815-567 2076-863 2995-1917 729-1249 1371-2371 1981-3022 616-656 1186-895 1403-712 217 182 62 803-466 1595-516 775-1419 1692-2418 2692-895 1113-1653 2249-2408 2855-776 623-1488 749-1720 350z"/> <path class="fil18" d="m-2166 7673c-297-353-342-1280 304-1923 705-700 1895-1210 2617-2408 501-1356 939-2573 1426-3320 492-753 1012-1087 1258-945 246 141 200 780-182 1652-374 852-1103 1912-1914 3070-687 1253-1237 2502-1875 3230-656 749-1336 997-1634 644z"/> <path class="fil19" d="m-588 8516c-354-296-559-1202-34-1947 572-812 1655-1521 2158-2826 258-1422 478-2697 829-3517 353-827 808-1246 1074-1149s333 733 108 1658c-221 905-755 2075-1352 3357-460 1352-784 2678-1286 3506-516 851-1142 1213-1497 918z"/> <path class="fil20" d="m1113 9071c-401-229-760-1085-372-1911 422-899 1366-1785 1634-3157 7-1446 3-2739 205-3608 205-876 580-1368 859-1318 279 49 455 665 394 1614-60 929-383 2175-748 3540-218 1412-307 2775-658 3677-360 928-914 1393-1314 1163z"/> <path class="fil21" d="m2884 9324c-434-157-937-938-699-1818 260-958 1036-1995 1062-3393-244-1425-473-2698-424-3588 49-899 332-1448 616-1448s564 575 668 1521c103 926 1 2208-122 3617 31 1428 180 2785-9 3735-193 976-659 1530-1092 1374z"/> <path class="fil21" d="m2884 9324c-434-157-937-938-699-1818 260-958 1036-1995 1062-3393-244-1425-473-2698-424-3588 49-899 332-1448 616-1448s564 575 668 1521c103 926 1 2208-122 3617 31 1428 180 2785-9 3735-193 976-659 1530-1092 1374z"/> <path class="fil22" d="m4671 9264c-454-79-1085-760-1003-1668 89-989 673-2145 456-3527-488-1360-934-2574-1041-3459-107-894 77-1484 356-1533 279-50 655 469 923 1382 261 894 384 2174 507 3583 278 1401 661 2712 640 3679-21 996-383 1622-838 1543z"/> <path class="fil23" d="m6422 8896c-462 1-1201-561-1278-1469-84-990 291-2230-163-3552-717-1256-1367-2373-1626-3227-261-861-182-1474 84-1571 267-97 727 348 1149 1201 412 834 755 2075 1122 3440 517 1332 1121 2556 1269 3513 152 983-96 1663-557 1665z"/> <path class="fil24" d="m8081 8228c-454 82-1280-343-1513-1224-254-960-101-2246-777-3470-924-1112-1759-2099-2162-2895-406-803-436-1421-190-1562 246-142 776 216 1340 983 551 750 1104 1912 1702 3193 741 1222 1548 2323 1860 3239 320 943 195 1655-260 1736z"/> <path class="fil25" d="m9600 7283c-433 159-1320-116-1703-943-417-901-489-2194-1368-3282-1103-935-2097-1762-2632-2476-539-720-675-1323-458-1505 217-183 802 78 1490 736 673 643 1420 1691 2231 2849 942 1074 1928 2018 2394 2866 479 873 479 1596 46 1755z"/> <path class="fil26" d="m10932 6089c-399 231-1321 115-1842-634-567-815-862-2076-1917-2994-1248-729-2370-1371-3021-1981-657-616-895-1186-713-1403 182-218 803-62 1595 466 775 516 1692 1418 2692 2418 1114 894 2249 1653 2855 2407 624 777 750 1489 351 1721z"/> <path class="fil27" d="m12035 4681c-352 298-1280 343-1923-304-700-704-1210-1894-2408-2616-1356-501-2573-939-3319-1427-754-492-1088-1012-946-1257 142-246 781-201 1652 182 853 374 1912 1103 3071 1914 1252 687 2502 1237 3230 1875 749 656 996 1336 643 1633z"/> <path class="fil27" d="m12035 4681c-352 298-1280 343-1923-304-700-704-1210-1894-2408-2616-1356-501-2573-939-3319-1427-754-492-1088-1012-946-1257 142-246 781-201 1652 182 853 374 1912 1103 3071 1914 1252 687 2502 1237 3230 1875 749 656 996 1336 643 1633z"/> <path class="fil28" d="m12878 3103c-296 354-1201 560-1947 35-812-572-1521-1656-2825-2158-1423-258-2697-478-3517-829-828-354-1247-808-1150-1074 97-267 734-333 1659-108 904 220 2075 755 3356 1352 1353 459 2679 784 3507 1285 851 516 1213 1143 917 1497z"/> <path class="fil29" d="m13434 1403c-230 400-1086 760-1911 372-899-422-1786-1366-3158-1635-1446-7-2739-2-3607-205-877-204-1368-579-1319-858 49-280 665-456 1615-394 929 59 2174 382 3540 748 1412 218 2774 307 3676 657 928 361 1394 915 1164 1315z"/> <path class="fil30" d="m13686-368c-157 434-938 937-1818 698-958-259-1995-1035-3393-1061-1425 244-2697 473-3588 424-899-49-1448-333-1448-616 0-284 576-564 1522-669 925-102 2208 0 3616 123 1428-31 2785-180 3735 8 976 194 1531 659 1374 1093z"/> <path class="fil31" d="m13627-2156c-79 455-761 1086-1669 1004-989-90-2145-674-3526-457-1361 488-2574 935-3460 1041-894 108-1484-76-1533-355-49-280 469-656 1383-923 893-261 2174-384 3582-507 1401-279 2712-661 3680-640 995 21 1622 383 1543 837z"/> <path class="fil32" d="m13258-3906c1 461-561 1201-1469 1278-990 83-2229-291-3552 163-1256 717-2373 1367-3227 1626-861 261-1474 182-1571-84-97-267 348-727 1201-1149 835-413 2075-756 3440-1122 1332-517 2556-1121 3513-1269 984-152 1664 96 1665 557z"/> <path class="fil33" d="m12591-5566c81 454-344 1280-1225 1514-960 254-2246 101-3470 777-1112 924-2099 1759-2895 2162-803 406-1420 435-1562 190-142-246 217-776 984-1340 750-551 1911-1105 3193-1702 1221-741 2322-1549 3239-1860 942-321 1655-195 1736 259z"/> <path class="fil33" d="m12591-5566c81 454-344 1280-1225 1514-960 254-2246 101-3470 777-1112 924-2099 1759-2895 2162-803 406-1420 435-1562 190-142-246 217-776 984-1340 750-551 1911-1105 3193-1702 1221-741 2322-1549 3239-1860 942-321 1655-195 1736 259z"/> <path class="fil34" d="m11646-7084c159 433-116 1320-944 1703-901 417-2194 489-3282 1368-934 1103-1762 2096-2476 2631-720 540-1323 676-1505 459-182-218 79-802 736-1491 643-673 1691-1419 2849-2230 1074-942 2018-1928 2867-2394 872-480 1596-480 1755-46z"/> <path class="fil35" d="m10451-8416c232 399 115 1320-633 1841-815 567-2076 863-2995 1917-729 1249-1371 2371-1981 3022-615 656-1186 895-1403 713-217-183-62-804 466-1596 517-774 1419-1691 2418-2691 895-1114 1653-2250 2408-2856 776-623 1488-749 1720-350z"/> <path class="fil36" d="m9044-9520c297 353 342 1281-304 1923-705 701-1895 1211-2617 2408-501 1357-938 2573-1426 3320-492 753-1012 1087-1258 946-246-142-200-781 182-1653 374-852 1103-1912 1914-3070 688-1252 1237-2502 1875-3230 656-749 1336-996 1634-644z"/> <path class="fil37" d="m7466-10362c354 295 559 1201 34 1946-572 812-1655 1521-2158 2826-258 1423-478 2697-828 3517-354 827-809 1247-1075 1150s-333-734-108-1659c221-904 755-2075 1352-3356 460-1353 784-2679 1286-3507 516-851 1143-1213 1497-917z"/> <path class="fil38" d="m5765-10918c401 229 760 1086 373 1911-423 899-1367 1785-1635 3157-7 1446-3 2739-205 3608-205 876-580 1368-859 1319-279-50-455-665-394-1615 60-929 383-2175 748-3540 218-1412 307-2774 658-3677 360-928 914-1393 1314-1163z"/> <path class="fil39" d="m3995-11170c434 156 936 937 698 1817-260 959-1036 1996-1062 3394 244 1425 473 2697 425 3588-50 898-333 1448-617 1448s-564-576-668-1522c-103-925-1-2208 122-3616-31-1429-180-2786 9-3735 194-977 659-1531 1093-1374z"/> </g> <path class="fil40" d="m94-817h6365v3421h-6365v-3421z"/> </svg>